<svg width="48" height="48" viewBox="0 0 48 48" fill="none" xmlns="http://www.w3.org/2000/svg">
<path d="M45 0H3C1.34315 0 0 1.34315 0 3V45C0 46.6569 1.34315 48 3 48H45C46.6569 48 48 46.6569 48 45V3C48 1.34315 46.6569 0 45 0Z" fill="#ED64A6"/>
<path d="M16.5058 17.5456V29.716C16.4973 31.395 15.7473 32.2813 14.3836 32.2813C13.0967 32.2813 12.2615 31.4802 12.2359 30.091H8.56259C8.54554 33.5768 11.0342 35.2387 14.1961 35.2387C17.7331 35.2387 20.145 33.0995 20.1535 29.716V17.5456H16.5058ZM34.8334 22.5654H38.3703C38.3192 19.4546 35.7624 17.3069 31.876 17.3069C28.0493 17.3069 25.2453 19.4206 25.2624 22.591C25.2538 25.1649 27.0692 26.6393 30.0181 27.3467L31.9186 27.824C33.8192 28.2842 34.876 28.8296 34.8845 30.0058C34.876 31.2842 33.6658 32.1535 31.7908 32.1535C29.8732 32.1535 28.4925 31.2671 28.3732 29.52H24.8021C24.8959 33.2956 27.5976 35.2473 31.8334 35.2473C36.0948 35.2473 38.6004 33.2103 38.609 30.0143C38.6004 27.1081 36.4101 25.5654 33.376 24.8836L31.8078 24.5086C30.2908 24.1592 29.0209 23.5967 29.0465 22.3439C29.0465 21.2189 30.0436 20.3921 31.8504 20.3921C33.6146 20.3921 34.697 21.1933 34.8334 22.5654Z" fill="white"/>
</svg>
